<svg width="196" height="142" viewBox="0 0 196 142" fill="none" xmlns="http://www.w3.org/2000/svg">
<path d="M196 142H0V112.105H196V142Z" fill="white"/>
<path d="M129.722 85.2C130.772 85.2 131.723 85.3906 132.573 85.7732C133.436 86.142 134.168 86.6887 134.768 87.4126L133.605 88.6837C132.555 87.5773 131.285 87.0245 129.797 87.0243C128.797 87.0243 127.896 87.2626 127.095 87.7408C126.307 88.2053 125.689 88.8614 125.238 89.7084C124.788 90.5418 124.563 91.4853 124.563 92.5373C124.563 93.5753 124.788 94.5178 125.238 95.3646C125.689 96.198 126.307 96.8541 127.095 97.3322C127.895 97.8103 128.79 98.0486 129.777 98.0487C130.953 98.0487 131.979 97.7419 132.854 97.1273V92.4541H134.656V98.0487C134.005 98.6362 133.248 99.0873 132.385 99.4015C131.523 99.7157 130.622 99.873 129.685 99.873C128.359 99.873 127.164 99.5585 126.1 98.9301C125.038 98.288 124.199 97.414 123.587 96.3076C122.986 95.1875 122.687 93.9305 122.687 92.5373C122.687 91.1437 122.986 89.8857 123.587 88.7654C124.199 87.6453 125.038 86.7714 126.1 86.143C127.176 85.5145 128.384 85.2 129.722 85.2Z" fill="white"/>
<path fill-rule="evenodd" clip-rule="evenodd" d="M158.112 85.2C159.425 85.2001 160.614 85.521 161.676 86.163C162.739 86.7914 163.57 87.6668 164.17 88.787C164.77 89.8936 165.071 91.1438 165.071 92.5373C165.071 93.9305 164.77 95.1875 164.17 96.3076C163.57 97.4138 162.739 98.2881 161.676 98.9301C160.614 99.5584 159.425 99.8729 158.112 99.873C156.786 99.873 155.591 99.5585 154.528 98.9301C153.465 98.288 152.627 97.4075 152.014 96.2876C151.414 95.1675 151.115 93.9169 151.115 92.5373C151.115 91.1577 151.414 89.9071 152.014 88.787C152.627 87.6668 153.465 86.7914 154.528 86.163C155.591 85.5209 156.786 85.2 158.112 85.2ZM158.112 87.0243C157.149 87.0243 156.273 87.2628 155.486 87.7408C154.71 88.2188 154.097 88.8817 153.647 89.7284C153.21 90.5618 152.99 91.499 152.99 92.5373C152.99 93.5753 153.21 94.5178 153.647 95.3646C154.097 96.198 154.71 96.8541 155.486 97.3322C156.273 97.8103 157.149 98.0487 158.112 98.0487C159.075 98.0486 159.937 97.8102 160.7 97.3322C161.476 96.8541 162.082 96.198 162.52 95.3646C162.97 94.5178 163.195 93.5753 163.196 92.5373C163.196 91.499 162.97 90.5618 162.52 89.7284C162.082 88.8816 161.475 88.2189 160.7 87.7408C159.937 87.2629 159.075 87.0244 158.112 87.0243Z" fill="white"/>
<path d="M170.446 93.4386C170.446 96.5124 171.678 98.0487 174.141 98.0487C175.342 98.0487 176.261 97.6737 176.899 96.9224C177.537 96.1574 177.855 94.996 177.855 93.4386V85.3633H179.675V93.5203C179.675 95.5829 179.188 97.1607 178.213 98.2536C177.237 99.3329 175.873 99.873 174.123 99.873C172.372 99.873 171.008 99.3266 170.033 98.2336C169.057 97.1407 168.57 95.5695 168.57 93.5203V85.3633H170.446V93.4386Z" fill="white"/>
<path d="M12.8565 87.1476H8.35457V99.7097H6.49765V87.1476H1.99418V85.3633H12.8565V87.1476Z" fill="white"/>
<path fill-rule="evenodd" clip-rule="evenodd" d="M21.5797 85.3633C23.2804 85.3634 24.6188 85.8081 25.5943 86.6961C26.5696 87.5841 27.0579 88.8074 27.0579 90.3648C27.0578 91.4711 26.8069 92.4135 26.3068 93.1921C25.8065 93.9709 25.0931 94.5379 24.1676 94.8932L27.2815 99.7097H25.238L22.4048 95.303C22.0548 95.3303 21.7798 95.3446 21.5797 95.3446H18.3347V99.7097H16.4577V85.3633H21.5797ZM18.3347 93.602H21.5226C22.7106 93.602 23.6179 93.3223 24.2432 92.7622C24.8684 92.2022 25.1808 91.4029 25.1809 90.3648C25.1809 89.3265 24.8685 88.5338 24.2432 87.9873C23.6179 87.4272 22.7107 87.1476 21.5226 87.1476H18.3347V93.602Z" fill="white"/>
<path fill-rule="evenodd" clip-rule="evenodd" d="M41.1991 99.7097H39.2296L37.786 96.1227H30.8072L29.3621 99.7097H27.4296L33.3766 85.3633H35.2335L41.1991 99.7097ZM31.4627 94.4833H37.129L34.2958 87.4542L31.4627 94.4833Z" fill="white"/>
<path fill-rule="evenodd" clip-rule="evenodd" d="M48.4247 85.3633C49.8129 85.3633 51.0445 85.6651 52.12 86.2662C53.1955 86.8674 54.0277 87.7141 54.6155 88.807C55.2157 89.8863 55.5162 91.1302 55.5162 92.5373C55.5161 93.9442 55.2157 95.1948 54.6155 96.2876C54.0277 97.3666 53.1954 98.2057 52.12 98.8068C51.0445 99.4079 49.8129 99.7097 48.4247 99.7097H42.891V85.3633H48.4247ZM44.7664 97.927H48.3121C49.3749 97.927 50.3065 97.7012 51.1068 97.2506C51.9197 96.7997 52.546 96.1707 52.9837 95.3646C53.4213 94.5452 53.6391 93.6025 53.6392 92.5373C53.6392 91.4716 53.4215 90.5345 52.9837 89.7284C52.546 88.9088 51.9196 88.2732 51.1068 87.8224C50.3065 87.3718 49.3749 87.1476 48.3121 87.1476H44.7664V97.927Z" fill="white"/>
<path d="M67.6185 87.1476H60.2263V91.5527H66.8119V93.2954H60.2263V97.927H67.8807V99.7097H58.3509V85.3633H67.6185V87.1476Z" fill="white"/>
<path d="M84.1672 95.4463L89.5699 85.3633H91.1075L91.1276 99.7097H89.3262L89.3077 89.2569L84.5605 97.9671H83.6984L78.9512 89.3186V99.7097H77.1514V85.3633H78.689L84.1672 95.4463Z" fill="white"/>
<path fill-rule="evenodd" clip-rule="evenodd" d="M115.011 99.7097H113.042L111.597 96.1227H104.618L103.174 99.7097H101.242L107.189 85.3633H109.046L115.011 99.7097ZM105.275 94.4833H110.94L108.108 87.4542L105.275 94.4833Z" fill="white"/>
<path fill-rule="evenodd" clip-rule="evenodd" d="M143.767 85.3633C145.468 85.3633 146.806 85.8081 147.782 86.6961C148.757 87.5842 149.246 88.8073 149.246 90.3648C149.245 91.4712 148.995 92.4135 148.494 93.1921C147.994 93.9707 147.282 94.5379 146.357 94.8932L149.471 99.7097H147.426L144.592 95.303C144.242 95.3303 143.967 95.3446 143.767 95.3446H140.522V99.7097H138.645V85.3633H143.767ZM140.522 93.602H143.712C144.899 93.6019 145.806 93.3221 146.431 92.7622C147.056 92.2022 147.369 91.4029 147.369 90.3648C147.369 89.3264 147.056 88.5338 146.431 87.9873C145.806 87.4273 144.9 87.1477 143.712 87.1476H140.522V93.602Z" fill="white"/>
<path fill-rule="evenodd" clip-rule="evenodd" d="M190.149 85.3633C191.849 85.3633 193.188 85.8082 194.163 86.6961C195.139 87.5842 195.627 88.8073 195.627 90.3648C195.627 91.922 195.138 93.1439 194.163 94.0319C193.188 94.9199 191.849 95.3646 190.149 95.3646H186.904V99.7097H185.028V85.3633H190.149ZM186.904 93.5819H190.093C191.281 93.5819 192.188 93.3087 192.814 92.7622C193.439 92.2022 193.751 91.4027 193.751 90.3648C193.751 89.3267 193.439 88.5338 192.814 87.9873C192.188 87.4272 191.281 87.1476 190.093 87.1476H186.904V93.5819Z" fill="white"/>
<path d="M73.3712 94.9348H68.3249V93.2337H73.3712V94.9348Z" fill="white"/>
<path d="M100.303 94.9348H95.2563V93.2337H100.303V94.9348Z" fill="white"/>
<path d="M120.75 94.9332H115.704V93.2322H120.75V94.9332Z" fill="white"/>
<path d="M67.3285 72.245H13.8297C21.0195 44.9306 41.1761 22.8689 67.3285 13.0275V72.245Z" fill="white"/>
<path d="M99.2477 0C106.762 8.02556e-05 113.871 0.853109 120.194 2.37283V72.245H78.3004V2.37283C84.6232 0.853063 91.7332 -6.4849e-07 99.2477 0Z" fill="white"/>
<path d="M131.165 14.0105C156.102 24.2875 175.212 45.8054 182.172 72.245H131.165V14.0105Z" fill="white"/>
</svg>
