<svg width="18" height="12" viewBox="0 0 18 12" fill="none" xmlns="http://www.w3.org/2000/svg">
<g clip-path="url(#clip0_62_1238)">
<path d="M16.717 0.215277L6.35367 10.3233C6.28399 10.3916 6.20119 10.4457 6.11001 10.4827C6.01883 10.5196 5.92107 10.5386 5.82234 10.5386C5.72361 10.5386 5.62585 10.5196 5.53467 10.4827C5.44349 10.4457 5.36068 10.3916 5.29101 10.3233L1.28336 6.41047C1.21368 6.34223 1.13088 6.28809 1.0397 6.25115C0.948519 6.21421 0.850759 6.19519 0.752027 6.19519C0.653295 6.19519 0.555535 6.21421 0.464356 6.25115C0.373177 6.28809 0.290374 6.34223 0.220698 6.41047C0.150746 6.47843 0.0952417 6.5592 0.0573688 6.64814C0.0194958 6.73708 0 6.83244 0 6.92874C0 7.02505 0.0194958 7.12041 0.0573688 7.20935C0.0952417 7.29829 0.150746 7.37906 0.220698 7.44702L4.22985 11.357C4.65278 11.7687 5.22591 12 5.82346 12C6.42101 12 6.99415 11.7687 7.41708 11.357L17.7797 1.2511C17.8495 1.18315 17.9049 1.10243 17.9427 1.01355C17.9805 0.924682 18 0.829408 18 0.733189C18 0.636969 17.9805 0.541695 17.9427 0.452823C17.9049 0.363951 17.8495 0.283228 17.7797 0.215277C17.71 0.147044 17.6272 0.0929024 17.536 0.0559597C17.4448 0.0190171 17.3471 0 17.2484 0C17.1496 0 17.0519 0.0190171 16.9607 0.0559597C16.8695 0.0929024 16.7867 0.147044 16.717 0.215277Z" fill="#34C759"/>
</g>
<defs>
<clipPath id="clip0_62_1238">
<rect width="18" height="12" fill="white"/>
</clipPath>
</defs>
</svg>
