<svg width="44" height="40" viewBox="0 0 44 40" fill="none" xmlns="http://www.w3.org/2000/svg">
<path d="M16.48 0L9.44 29.7189L8.16 22.8112C10.72 22.8112 12.8 23.6145 14.4 25.2209C16 26.7202 16.8 28.755 16.8 31.3253C16.8 33.8956 16 35.9839 14.4 37.5904C12.8 39.1968 10.8267 40 8.48 40C5.92 40 3.84 39.1968 2.24 37.5904C0.746667 35.8768 0 33.7885 0 31.3253C0 30.3614 0.0533332 29.5047 0.16 28.755C0.266667 28.0054 0.48 27.095 0.8 26.0241C1.12 24.9531 1.54667 23.668 2.08 22.1687L8.8 0H16.48ZM43.68 0L36.64 29.7189L35.36 22.8112C37.92 22.8112 40 23.6145 41.6 25.2209C43.2 26.7202 44 28.755 44 31.3253C44 33.8956 43.2 35.9839 41.6 37.5904C40 39.1968 38.0267 40 35.68 40C33.12 40 31.04 39.1968 29.44 37.5904C27.9467 35.8768 27.2 33.7885 27.2 31.3253C27.2 30.3614 27.2533 29.5047 27.36 28.755C27.4667 28.0054 27.68 27.095 28 26.0241C28.32 24.9531 28.7467 23.668 29.28 22.1687L36 0H43.68Z" fill="#C23001"/>
</svg>
