<svg width="83" height="60" viewBox="0 0 83 60" fill="none" xmlns="http://www.w3.org/2000/svg">
<path d="M83 60H0V47.3685H83V60Z" fill="#C23001"/>
<path d="M54.9332 36C55.378 36 55.7807 36.0806 56.1408 36.2422C56.5062 36.398 56.816 36.629 57.0702 36.9349L56.5777 37.472C56.1329 37.0045 55.5953 36.7709 54.9652 36.7708C54.5415 36.7708 54.1599 36.8715 53.8209 37.0736C53.4873 37.2698 53.2253 37.5471 53.0346 37.9049C52.8439 38.2571 52.7485 38.6558 52.7485 39.1003C52.7486 39.5389 52.844 39.9371 53.0346 40.2949C53.2253 40.647 53.4873 40.9243 53.8209 41.1263C54.1598 41.3283 54.5384 41.429 54.9567 41.429C55.4545 41.429 55.889 41.2994 56.2597 41.0397V39.0651H57.0225V41.429C56.7471 41.6773 56.4265 41.8679 56.0611 42.0007C55.6958 42.1334 55.3146 42.1998 54.9175 42.1999C54.3561 42.1999 53.8499 42.067 53.3997 41.8014C52.9496 41.5301 52.5946 41.1609 52.3351 40.6934C52.081 40.2201 51.9544 39.6889 51.9544 39.1003C51.9544 38.5114 52.0809 37.9799 52.3351 37.5065C52.5946 37.0332 52.9496 36.664 53.3997 36.3984C53.8552 36.1329 54.3665 36 54.9332 36Z" fill="#C23001"/>
<path fill-rule="evenodd" clip-rule="evenodd" d="M66.9557 36C67.5117 36 68.0149 36.1356 68.465 36.4069C68.9151 36.6724 69.2669 37.0423 69.5211 37.5156C69.7753 37.9832 69.9025 38.5115 69.9025 39.1003C69.9025 39.689 69.7753 40.2201 69.5211 40.6934C69.2669 41.1608 68.915 41.5302 68.465 41.8014C68.0149 42.0669 67.5117 42.1998 66.9557 42.1999C66.3943 42.1999 65.888 42.067 65.4378 41.8014C64.9878 41.5301 64.6327 41.1581 64.3733 40.6849C64.1191 40.2116 63.9925 39.6832 63.9925 39.1003C63.9925 38.5174 64.1192 37.9889 64.3733 37.5156C64.6327 37.0423 64.9877 36.6724 65.4378 36.4069C65.888 36.1356 66.3943 36 66.9557 36ZM66.9557 36.7708C66.548 36.7708 66.177 36.8716 65.8434 37.0736C65.5151 37.2756 65.2556 37.5556 65.0649 37.9134C64.8795 38.2655 64.7867 38.6615 64.7867 39.1003C64.7867 39.5389 64.8796 39.9371 65.0649 40.2949C65.2556 40.647 65.5151 40.9243 65.8434 41.1263C66.177 41.3283 66.5479 41.429 66.9557 41.429C67.3633 41.429 67.7286 41.3283 68.0516 41.1263C68.3799 40.9243 68.6369 40.6471 68.8223 40.2949C69.0129 39.9371 69.1083 39.5389 69.1083 39.1003C69.1083 38.6615 69.0129 38.2655 68.8223 37.9134C68.6369 37.5556 68.3799 37.2756 68.0516 37.0736C67.7286 36.8716 67.3633 36.7709 66.9557 36.7708Z" fill="#C23001"/>
<path d="M72.1786 39.4811C72.1786 40.7799 72.7002 41.429 73.7435 41.429C74.2518 41.429 74.6411 41.2706 74.9112 40.9531C75.1813 40.6299 75.3161 40.1391 75.3161 39.4811V36.069H76.0868V39.5156C76.0868 40.3871 75.8806 41.0538 75.4677 41.5156C75.0546 41.9717 74.477 42.1999 73.7356 42.1999C72.9942 42.1999 72.4167 41.969 72.0036 41.5072C71.5905 41.0453 71.3844 40.3815 71.3844 39.5156V36.069H72.1786V39.4811Z" fill="#C23001"/>
<path d="M5.44434 36.8229H3.5379V42.1309H2.75156V36.8229H0.844473V36.069H5.44434V36.8229Z" fill="#C23001"/>
<path fill-rule="evenodd" clip-rule="evenodd" d="M9.13833 36.069C9.85853 36.069 10.4253 36.257 10.8384 36.6322C11.2514 37.0074 11.4582 37.5243 11.4582 38.1823C11.4582 38.6498 11.3519 39.048 11.1401 39.377C10.9283 39.706 10.6262 39.9456 10.2343 40.0957L11.5529 42.1309H10.6875L9.48775 40.2689C9.33954 40.2804 9.22306 40.2865 9.13833 40.2865H7.76419V42.1309H6.96935V36.069H9.13833ZM7.76419 39.5501H9.11417C9.61726 39.5501 10.0015 39.432 10.2663 39.1953C10.531 38.9587 10.6633 38.6209 10.6633 38.1823C10.6633 37.7436 10.531 37.4086 10.2663 37.1777C10.0015 36.9411 9.6173 36.8229 9.11417 36.8229H7.76419V39.5501Z" fill="#C23001"/>
<path fill-rule="evenodd" clip-rule="evenodd" d="M17.4466 42.1309H16.6125L16.0012 40.6152H13.0459L12.4339 42.1309H11.6156L14.134 36.069H14.9203L17.4466 42.1309ZM13.3235 39.9225H15.723L14.5232 36.9525L13.3235 39.9225Z" fill="#C23001"/>
<path fill-rule="evenodd" clip-rule="evenodd" d="M20.5064 36.069C21.0942 36.069 21.6158 36.1965 22.0712 36.4505C22.5267 36.7045 22.8791 37.0623 23.128 37.5241C23.3822 37.9801 23.5094 38.5057 23.5094 39.1003C23.5094 39.6947 23.3821 40.2232 23.128 40.6849C22.8791 41.1408 22.5266 41.4954 22.0712 41.7494C21.6158 42.0033 21.0942 42.1309 20.5064 42.1309H18.163V36.069H20.5064ZM18.9572 41.3776H20.4587C20.9088 41.3776 21.3033 41.2822 21.6421 41.0918C21.9864 40.9013 22.2516 40.6355 22.437 40.2949C22.6223 39.9487 22.7145 39.5504 22.7146 39.1003C22.7146 38.65 22.6223 38.254 22.437 37.9134C22.2516 37.5671 21.9864 37.2986 21.6421 37.1081C21.3033 36.9177 20.9087 36.8229 20.4587 36.8229H18.9572V41.3776Z" fill="#C23001"/>
<path d="M28.6344 36.8229H25.504V38.6842H28.2928V39.4206H25.504V41.3776H28.7454V42.1309H24.7098V36.069H28.6344V36.8229Z" fill="#C23001"/>
<path d="M35.6422 40.3294L37.9301 36.069H38.5812L38.5897 42.1309H37.8269L37.8191 37.7142L35.8088 41.3945H35.4437L33.4334 37.7402V42.1309H32.6712V36.069H33.3224L35.6422 40.3294Z" fill="#C23001"/>
<path fill-rule="evenodd" clip-rule="evenodd" d="M48.7038 42.1309H47.8698L47.2578 40.6152H44.3025L43.6912 42.1309H42.8728L45.3912 36.069H46.1776L48.7038 42.1309ZM44.5807 39.9225H46.9796L45.7805 36.9525L44.5807 39.9225Z" fill="#C23001"/>
<path fill-rule="evenodd" clip-rule="evenodd" d="M60.8811 36.069C61.6013 36.069 62.168 36.2569 62.5811 36.6322C62.9942 37.0074 63.2009 37.5242 63.2009 38.1823C63.2009 38.6498 63.0947 39.048 62.8829 39.377C62.6711 39.7059 62.3694 39.9456 61.9777 40.0957L63.2963 42.1309H62.4303L61.2305 40.2689C61.0823 40.2804 60.9658 40.2865 60.8811 40.2865H59.5069V42.1309H58.7121V36.069H60.8811ZM59.5069 39.5501H60.8576C61.3605 39.5501 61.7443 39.4319 62.009 39.1953C62.2738 38.9587 62.4061 38.6209 62.4061 38.1823C62.4061 37.7436 62.2738 37.4086 62.009 37.1777C61.7442 36.9411 61.3605 36.823 60.8576 36.8229H59.5069V39.5501Z" fill="#C23001"/>
<path fill-rule="evenodd" clip-rule="evenodd" d="M80.5221 36.069C81.2423 36.069 81.8091 36.257 82.2221 36.6322C82.6352 37.0074 82.8419 37.5242 82.8419 38.1823C82.8419 38.8403 82.6352 39.3566 82.2221 39.7318C81.8091 40.107 81.2424 40.2949 80.5221 40.2949H79.1479V42.1309H78.3538V36.069H80.5221ZM79.1479 39.5417H80.4986C81.0017 39.5417 81.3859 39.4262 81.6507 39.1953C81.9154 38.9587 82.0477 38.6209 82.0478 38.1823C82.0478 37.7437 81.9153 37.4086 81.6507 37.1777C81.3859 36.9411 81.0017 36.8229 80.4986 36.8229H79.1479V39.5417Z" fill="#C23001"/>
<path d="M31.0705 40.1133H28.9335V39.3945H31.0705V40.1133Z" fill="#C23001"/>
<path d="M42.4751 40.1133H40.3381V39.3945H42.4751V40.1133Z" fill="#C23001"/>
<path d="M51.134 40.1126H48.9971V39.3939H51.134V40.1126Z" fill="#C23001"/>
<path d="M28.5116 30.526H5.85645C8.90112 18.9848 17.4368 9.66291 28.5116 5.50456V30.526Z" fill="#C23001"/>
<path d="M42.0284 0C45.2104 3.39108e-05 48.2209 0.360468 50.8983 1.0026V30.526H33.1578V1.0026C35.8353 0.360449 38.8462 -2.7401e-07 42.0284 0Z" fill="#C23001"/>
<path d="M55.5445 5.91992C66.1042 10.2623 74.1971 19.3544 77.1442 30.526H55.5445V5.91992Z" fill="#C23001"/>
</svg>
